<?xml version="1.0" encoding="utf-8"?>
<!-- Generator: Adobe Illustrator 16.0.0, SVG Export Plug-In . SVG Version: 6.00 Build 0)  -->
<!DOCTYPE svg PUBLIC "-//W3C//DTD SVG 1.1//EN" "http://www.w3.org/Graphics/SVG/1.1/DTD/svg11.dtd">
<svg version="1.1" id="Calque_1" xmlns="http://www.w3.org/2000/svg" xmlns:xlink="http://www.w3.org/1999/xlink" x="0px" y="0px"
	 width="200px" height="200px" viewBox="0 0 200 200" enable-background="new 0 0 200 200" xml:space="preserve">
<g>
	<g id="XMLID_1_">
		<g>
			<path fill="#FFFFFF" d="M117.562,101.224c13.576,5.571,20.645,19.709,15.778,31.586c-1.122,2.75-2.793,5.14-4.865,7.111
				c3.354-4.16-8.652-43.477-45.334-24.042c0.23-1.094,0.576-2.174,1.008-3.225C89.014,100.778,103.972,95.667,117.562,101.224z"/>
			<path fill="#FFFFFF" d="M123.623,83.329c-2.002,0-3.6,1.44-3.6,3.21c0,1.771,1.598,3.21,3.6,3.21c1.986,0,3.599-1.439,3.599-3.21
				C127.222,84.769,125.609,83.329,123.623,83.329z M83.14,115.879c-2.52,11.1,4.492,23.322,16.786,28.361
				c10.437,4.275,21.695,2.246,28.548-4.319c2.072-1.972,3.743-4.361,4.865-7.111c4.866-11.877-2.202-26.015-15.778-31.586
				c-13.59-5.557-28.548-0.446-33.414,11.431C83.716,113.705,83.371,114.785,83.14,115.879z M162.335,134.494l-7.313,5.398
				c0,0,3.354,2.635,3.599,5.874l-5.644,4.203c0,0,3.441,3.974,3.124,8.033l-69.577,40.31c0,0-4.737-38.279-42.009-67.015
				c-0.259-0.188-5.629-42.512-29.829-59.255l7.198-6.205l-3.153-3.873l8.278-7.371l-3.11-4.809L85.501,1.688
				c0,0,26.807,33.472,17.333,83.254l5.644,1.08c0,0,0-15.347,17.275-15.462c0,0,19.421-34.234,20.155-35.516
				c0.72-1.281,5.27-3.83,9.357-0.835c4.074,2.994,2.16,8.278,2.16,8.278l-21.12,33.832c0,0,6.233,13.676-4.563,22.429
				C131.742,98.748,150.098,109.056,162.335,134.494z"/>
		</g>
		<g>
			<path fill="none" stroke="#000000" stroke-miterlimit="10" d="M83.14,115.879c0.23-1.094,0.576-2.174,1.008-3.225
				c4.866-11.876,19.824-16.987,33.414-11.431c13.576,5.571,20.645,19.709,15.778,31.586c-1.122,2.75-2.793,5.14-4.865,7.111
				c-6.854,6.565-18.111,8.595-28.548,4.319C87.632,139.201,80.621,126.979,83.14,115.879z"/>
			<path fill="none" stroke="#000000" stroke-miterlimit="10" d="M83.14,115.879c36.682-19.435,48.688,19.882,45.334,24.042"/>
			<line fill="none" stroke="#000000" stroke-miterlimit="10" x1="83.14" y1="115.879" x2="83.125" y2="115.879"/>
			<path fill="none" stroke="#000000" stroke-miterlimit="10" d="M86.523,198.313l69.577-40.31c0.317-4.06-3.124-8.033-3.124-8.033
				l5.644-4.203c-0.245-3.239-3.599-5.874-3.599-5.874l7.313-5.398c-12.237-25.438-30.593-35.747-30.593-35.747
				c10.797-8.753,4.563-22.429,4.563-22.429l21.12-33.832c0,0,1.914-5.284-2.16-8.278c-4.088-2.995-8.638-0.446-9.357,0.835
				c-0.734,1.281-20.155,35.516-20.155,35.516c-17.275,0.115-17.275,15.462-17.275,15.462l-5.644-1.08
				c9.474-49.782-17.333-83.254-17.333-83.254L23.899,49.786l3.11,4.809l-8.278,7.371l3.153,3.873l-7.198,6.205
				c24.2,16.743,29.57,59.068,29.829,59.255C81.787,160.033,86.523,198.313,86.523,198.313z"/>
			<path fill="none" stroke="#000000" stroke-miterlimit="10" d="M127.222,86.54c0-1.771-1.612-3.21-3.599-3.21
				c-2.002,0-3.6,1.44-3.6,3.21c0,1.771,1.598,3.21,3.6,3.21C125.609,89.75,127.222,88.311,127.222,86.54z"/>
		</g>
	</g>
	<path fill="none" stroke="#000000" stroke-miterlimit="10" d="M85.175,110.513c30.847-19.311,49.704,17.389,44.651,27.993"/>
	<polyline fill="#FFFFFF" stroke="#000000" stroke-miterlimit="10" points="108.439,86.026 100.329,125.226 131.713,98.746 	"/>
	<line fill="none" stroke="#000000" stroke-miterlimit="10" x1="100.329" y1="125.226" x2="121.637" y2="89.506"/>
	<path fill="none" stroke="#000000" stroke-miterlimit="10" d="M44.515,131.299c0.079-0.02,26.384-6.322,52.108,43.686
		l58.365-35.092"/>
	<path fill="none" stroke="#000000" stroke-miterlimit="10" d="M45.672,132.232c0.084-0.008,24.502-2.407,46.451,53.909
		l60.826-36.171"/>
	<path fill="none" stroke="#000000" stroke-miterlimit="10" d="M43.831,127.815c11.246-38.028-16.787-73.145-16.85-73.225"/>
	<path fill="none" stroke="#000000" stroke-miterlimit="10" d="M43.58,126.388c6.182-23.522-21.664-60.465-21.728-60.545"/>
</g>
</svg>
